%TF.GenerationSoftware,KiCad,Pcbnew,9.0.5*%
%TF.CreationDate,2025-11-20T02:47:11-08:00*%
%TF.ProjectId,Etch_A_Tune,45746368-5f41-45f5-9475-6e652e6b6963,rev?*%
%TF.SameCoordinates,Original*%
%TF.FileFunction,Soldermask,Top*%
%TF.FilePolarity,Negative*%
%FSLAX46Y46*%
G04 Gerber Fmt 4.6, Leading zero omitted, Abs format (unit mm)*
G04 Created by KiCad (PCBNEW 9.0.5) date 2025-11-20 02:47:11*
%MOMM*%
%LPD*%
G01*
G04 APERTURE LIST*
G04 Aperture macros list*
%AMRoundRect*
0 Rectangle with rounded corners*
0 $1 Rounding radius*
0 $2 $3 $4 $5 $6 $7 $8 $9 X,Y pos of 4 corners*
0 Add a 4 corners polygon primitive as box body*
4,1,4,$2,$3,$4,$5,$6,$7,$8,$9,$2,$3,0*
0 Add four circle primitives for the rounded corners*
1,1,$1+$1,$2,$3*
1,1,$1+$1,$4,$5*
1,1,$1+$1,$6,$7*
1,1,$1+$1,$8,$9*
0 Add four rect primitives between the rounded corners*
20,1,$1+$1,$2,$3,$4,$5,0*
20,1,$1+$1,$4,$5,$6,$7,0*
20,1,$1+$1,$6,$7,$8,$9,0*
20,1,$1+$1,$8,$9,$2,$3,0*%
G04 Aperture macros list end*
%ADD10C,0.010000*%
%ADD11C,1.000000*%
%ADD12RoundRect,0.200000X-0.200000X-0.275000X0.200000X-0.275000X0.200000X0.275000X-0.200000X0.275000X0*%
%ADD13R,1.803400X0.965200*%
%ADD14R,0.499999X0.249999*%
%ADD15R,0.900001X1.599999*%
%ADD16C,0.499999*%
%ADD17RoundRect,0.225000X0.250000X-0.225000X0.250000X0.225000X-0.250000X0.225000X-0.250000X-0.225000X0*%
%ADD18RoundRect,0.200000X-0.275000X0.200000X-0.275000X-0.200000X0.275000X-0.200000X0.275000X0.200000X0*%
%ADD19RoundRect,0.200000X0.275000X-0.200000X0.275000X0.200000X-0.275000X0.200000X-0.275000X-0.200000X0*%
%ADD20RoundRect,0.225000X0.225000X0.250000X-0.225000X0.250000X-0.225000X-0.250000X0.225000X-0.250000X0*%
%ADD21RoundRect,0.070000X0.355000X-0.070000X0.355000X0.070000X-0.355000X0.070000X-0.355000X-0.070000X0*%
%ADD22RoundRect,0.070000X0.305000X-0.070000X0.305000X0.070000X-0.305000X0.070000X-0.305000X-0.070000X0*%
%ADD23RoundRect,0.060500X-0.421500X-0.181500X0.421500X-0.181500X0.421500X0.181500X-0.421500X0.181500X0*%
%ADD24RoundRect,0.102000X-0.450000X-0.800000X0.450000X-0.800000X0.450000X0.800000X-0.450000X0.800000X0*%
%ADD25R,2.000000X2.000000*%
%ADD26RoundRect,0.225000X-0.250000X0.225000X-0.250000X-0.225000X0.250000X-0.225000X0.250000X0.225000X0*%
%ADD27RoundRect,0.225000X-0.225000X-0.250000X0.225000X-0.250000X0.225000X0.250000X-0.225000X0.250000X0*%
%ADD28RoundRect,0.102000X0.635000X2.100000X-0.635000X2.100000X-0.635000X-2.100000X0.635000X-2.100000X0*%
%ADD29RoundRect,0.218750X0.256250X-0.218750X0.256250X0.218750X-0.256250X0.218750X-0.256250X-0.218750X0*%
%ADD30RoundRect,0.102000X-0.250000X0.315000X-0.250000X-0.315000X0.250000X-0.315000X0.250000X0.315000X0*%
%ADD31O,1.152400X2.352400*%
%ADD32O,1.152400X1.952400*%
%ADD33RoundRect,0.102000X-2.100000X0.635000X-2.100000X-0.635000X2.100000X-0.635000X2.100000X0.635000X0*%
%ADD34RoundRect,0.250000X-1.100000X0.325000X-1.100000X-0.325000X1.100000X-0.325000X1.100000X0.325000X0*%
%ADD35RoundRect,0.102000X-1.385000X0.325000X-1.385000X-0.325000X1.385000X-0.325000X1.385000X0.325000X0*%
%ADD36RoundRect,0.200000X0.200000X0.275000X-0.200000X0.275000X-0.200000X-0.275000X0.200000X-0.275000X0*%
%ADD37C,1.300000*%
%ADD38C,1.100000*%
%ADD39RoundRect,0.102000X-0.750000X-1.200000X0.750000X-1.200000X0.750000X1.200000X-0.750000X1.200000X0*%
%ADD40RoundRect,0.102000X-1.250000X-1.700000X1.250000X-1.700000X1.250000X1.700000X-1.250000X1.700000X0*%
%ADD41RoundRect,0.102000X-0.635000X-2.100000X0.635000X-2.100000X0.635000X2.100000X-0.635000X2.100000X0*%
%ADD42RoundRect,0.250000X-0.375000X-1.075000X0.375000X-1.075000X0.375000X1.075000X-0.375000X1.075000X0*%
%ADD43RoundRect,0.250000X-0.450000X-0.350000X0.450000X-0.350000X0.450000X0.350000X-0.450000X0.350000X0*%
%ADD44C,1.700000*%
%ADD45RoundRect,0.102000X1.100000X1.400000X-1.100000X1.400000X-1.100000X-1.400000X1.100000X-1.400000X0*%
%ADD46RoundRect,0.102000X1.400000X1.400000X-1.400000X1.400000X-1.400000X-1.400000X1.400000X-1.400000X0*%
%ADD47RoundRect,0.102000X1.300000X1.400000X-1.300000X1.400000X-1.300000X-1.400000X1.300000X-1.400000X0*%
%ADD48R,0.228600X1.168400*%
%ADD49R,1.168400X0.228600*%
%ADD50RoundRect,0.102000X0.250000X-0.315000X0.250000X0.315000X-0.250000X0.315000X-0.250000X-0.315000X0*%
%ADD51C,0.900000*%
%ADD52RoundRect,0.102000X0.550000X-0.350000X0.550000X0.350000X-0.550000X0.350000X-0.550000X-0.350000X0*%
%ADD53RoundRect,0.102000X0.400000X-0.500000X0.400000X0.500000X-0.400000X0.500000X-0.400000X-0.500000X0*%
%ADD54R,1.200000X1.200000*%
%ADD55C,1.200000*%
%ADD56C,3.450000*%
%ADD57C,2.390000*%
G04 APERTURE END LIST*
D10*
%TO.C,U3*%
X121690000Y-37525000D02*
X119040000Y-37525000D01*
X119040000Y-35015000D01*
X121690000Y-35015000D01*
X121690000Y-37525000D01*
G36*
X121690000Y-37525000D02*
G01*
X119040000Y-37525000D01*
X119040000Y-35015000D01*
X121690000Y-35015000D01*
X121690000Y-37525000D01*
G37*
%TO.C,J4*%
X29198500Y-27303500D02*
X28481500Y-27303500D01*
X28481500Y-26026500D01*
X29198500Y-26026500D01*
X29198500Y-27303500D01*
G36*
X29198500Y-27303500D02*
G01*
X28481500Y-27303500D01*
X28481500Y-26026500D01*
X29198500Y-26026500D01*
X29198500Y-27303500D01*
G37*
X29998500Y-27303500D02*
X29281500Y-27303500D01*
X29281500Y-26026500D01*
X29998500Y-26026500D01*
X29998500Y-27303500D01*
G36*
X29998500Y-27303500D02*
G01*
X29281500Y-27303500D01*
X29281500Y-26026500D01*
X29998500Y-26026500D01*
X29998500Y-27303500D01*
G37*
X30502500Y-27303500D02*
X30077500Y-27303500D01*
X30077500Y-26026500D01*
X30502500Y-26026500D01*
X30502500Y-27303500D01*
G36*
X30502500Y-27303500D02*
G01*
X30077500Y-27303500D01*
X30077500Y-26026500D01*
X30502500Y-26026500D01*
X30502500Y-27303500D01*
G37*
X31002500Y-27303500D02*
X30577500Y-27303500D01*
X30577500Y-26026500D01*
X31002500Y-26026500D01*
X31002500Y-27303500D01*
G36*
X31002500Y-27303500D02*
G01*
X30577500Y-27303500D01*
X30577500Y-26026500D01*
X31002500Y-26026500D01*
X31002500Y-27303500D01*
G37*
X31502500Y-27303500D02*
X31077500Y-27303500D01*
X31077500Y-26026500D01*
X31502500Y-26026500D01*
X31502500Y-27303500D01*
G36*
X31502500Y-27303500D02*
G01*
X31077500Y-27303500D01*
X31077500Y-26026500D01*
X31502500Y-26026500D01*
X31502500Y-27303500D01*
G37*
X32002500Y-27303500D02*
X31577500Y-27303500D01*
X31577500Y-26026500D01*
X32002500Y-26026500D01*
X32002500Y-27303500D01*
G36*
X32002500Y-27303500D02*
G01*
X31577500Y-27303500D01*
X31577500Y-26026500D01*
X32002500Y-26026500D01*
X32002500Y-27303500D01*
G37*
X32502500Y-27303500D02*
X32077500Y-27303500D01*
X32077500Y-26026500D01*
X32502500Y-26026500D01*
X32502500Y-27303500D01*
G36*
X32502500Y-27303500D02*
G01*
X32077500Y-27303500D01*
X32077500Y-26026500D01*
X32502500Y-26026500D01*
X32502500Y-27303500D01*
G37*
X33002500Y-27303500D02*
X32577500Y-27303500D01*
X32577500Y-26026500D01*
X33002500Y-26026500D01*
X33002500Y-27303500D01*
G36*
X33002500Y-27303500D02*
G01*
X32577500Y-27303500D01*
X32577500Y-26026500D01*
X33002500Y-26026500D01*
X33002500Y-27303500D01*
G37*
X33502500Y-27303500D02*
X33077500Y-27303500D01*
X33077500Y-26026500D01*
X33502500Y-26026500D01*
X33502500Y-27303500D01*
G36*
X33502500Y-27303500D02*
G01*
X33077500Y-27303500D01*
X33077500Y-26026500D01*
X33502500Y-26026500D01*
X33502500Y-27303500D01*
G37*
X34002500Y-27303500D02*
X33577500Y-27303500D01*
X33577500Y-26026500D01*
X34002500Y-26026500D01*
X34002500Y-27303500D01*
G36*
X34002500Y-27303500D02*
G01*
X33577500Y-27303500D01*
X33577500Y-26026500D01*
X34002500Y-26026500D01*
X34002500Y-27303500D01*
G37*
X34798500Y-27303500D02*
X34081500Y-27303500D01*
X34081500Y-26026500D01*
X34798500Y-26026500D01*
X34798500Y-27303500D01*
G36*
X34798500Y-27303500D02*
G01*
X34081500Y-27303500D01*
X34081500Y-26026500D01*
X34798500Y-26026500D01*
X34798500Y-27303500D01*
G37*
X35598500Y-27303500D02*
X34881500Y-27303500D01*
X34881500Y-26026500D01*
X35598500Y-26026500D01*
X35598500Y-27303500D01*
G36*
X35598500Y-27303500D02*
G01*
X34881500Y-27303500D01*
X34881500Y-26026500D01*
X35598500Y-26026500D01*
X35598500Y-27303500D01*
G37*
%TO.C,U2*%
X121690000Y-40965000D02*
X119040000Y-40965000D01*
X119040000Y-38455000D01*
X121690000Y-38455000D01*
X121690000Y-40965000D01*
G36*
X121690000Y-40965000D02*
G01*
X119040000Y-40965000D01*
X119040000Y-38455000D01*
X121690000Y-38455000D01*
X121690000Y-40965000D01*
G37*
%TD*%
D11*
%TO.C,TP41*%
X89227140Y-61740000D03*
%TD*%
D12*
%TO.C,R28*%
X45215000Y-32740000D03*
X46865000Y-32740000D03*
%TD*%
D13*
%TO.C,CR1*%
X39359400Y-39169900D03*
X39359400Y-43310100D03*
%TD*%
D14*
%TO.C,U4*%
X47940002Y-49240001D03*
X47940002Y-48740002D03*
X47940002Y-48240000D03*
X47940002Y-47740001D03*
X46040000Y-47740001D03*
X46040000Y-48240000D03*
X46040000Y-48740002D03*
X46040000Y-49240001D03*
D15*
X46990001Y-48490002D03*
D16*
X46990001Y-48889999D03*
X46990001Y-48090000D03*
%TD*%
D17*
%TO.C,C32*%
X77727140Y-47015000D03*
X77727140Y-45465000D03*
%TD*%
D11*
%TO.C,TP8*%
X40040000Y-114240000D03*
%TD*%
%TO.C,TP38*%
X55790000Y-50990000D03*
%TD*%
%TO.C,TP15*%
X61790000Y-100490000D03*
%TD*%
D18*
%TO.C,R22*%
X25540000Y-24915000D03*
X25540000Y-26565000D03*
%TD*%
D11*
%TO.C,TP30*%
X120540000Y-66240000D03*
%TD*%
%TO.C,TP20*%
X27540000Y-52740000D03*
%TD*%
D18*
%TO.C,R12*%
X69540000Y-98915000D03*
X69540000Y-100565000D03*
%TD*%
%TO.C,R20*%
X94540000Y-82740000D03*
X94540000Y-84390000D03*
%TD*%
D11*
%TO.C,TP18*%
X29040000Y-57740000D03*
%TD*%
D18*
%TO.C,R7*%
X19540000Y-110415000D03*
X19540000Y-112065000D03*
%TD*%
D19*
%TO.C,R6*%
X48540000Y-43065000D03*
X48540000Y-41415000D03*
%TD*%
D11*
%TO.C,TP2*%
X40727140Y-32740000D03*
%TD*%
%TO.C,TP10*%
X109040000Y-116490000D03*
%TD*%
%TO.C,TP17*%
X29540000Y-60240000D03*
%TD*%
D20*
%TO.C,C30*%
X66002140Y-52240000D03*
X64452140Y-52240000D03*
%TD*%
D21*
%TO.C,U1*%
X94565000Y-34240000D03*
D22*
X94615000Y-33740000D03*
X94615000Y-33240000D03*
X93465000Y-33240000D03*
X93465000Y-33740000D03*
X93465000Y-34240000D03*
%TD*%
D11*
%TO.C,TP6*%
X126540000Y-38240000D03*
%TD*%
D17*
%TO.C,C33*%
X67227140Y-47015000D03*
X67227140Y-45465000D03*
%TD*%
D23*
%TO.C,U6*%
X54070000Y-33240000D03*
X54070000Y-33740000D03*
X54070000Y-34240000D03*
X54070000Y-34740000D03*
X56040000Y-34740000D03*
X56040000Y-34240000D03*
X56040000Y-33740000D03*
X56040000Y-33240000D03*
D24*
X55055000Y-33990000D03*
%TD*%
D18*
%TO.C,R10*%
X32540000Y-92915000D03*
X32540000Y-94565000D03*
%TD*%
D17*
%TO.C,C28*%
X74727140Y-47015000D03*
X74727140Y-45465000D03*
%TD*%
D25*
%TO.C,S5*%
X91999986Y-103707090D03*
X91999986Y-109707090D03*
%TD*%
D11*
%TO.C,TP33*%
X50040000Y-85240000D03*
%TD*%
D17*
%TO.C,C2*%
X67540000Y-33265000D03*
X67540000Y-31715000D03*
%TD*%
D19*
%TO.C,R3*%
X91040000Y-37065000D03*
X91040000Y-35415000D03*
%TD*%
D11*
%TO.C,TP1*%
X23040000Y-27240000D03*
%TD*%
D19*
%TO.C,R19*%
X53540000Y-91565000D03*
X53540000Y-89915000D03*
%TD*%
D18*
%TO.C,R18*%
X24040000Y-82415000D03*
X24040000Y-84065000D03*
%TD*%
D19*
%TO.C,R37*%
X56540000Y-40565000D03*
X56540000Y-38915000D03*
%TD*%
D17*
%TO.C,C36*%
X71727140Y-30015000D03*
X71727140Y-28465000D03*
%TD*%
D26*
%TO.C,C37*%
X78227140Y-28465000D03*
X78227140Y-30015000D03*
%TD*%
D11*
%TO.C,TP11*%
X128540000Y-116490000D03*
%TD*%
%TO.C,TP36*%
X32540000Y-33240000D03*
%TD*%
D27*
%TO.C,C25*%
X98452140Y-62740000D03*
X100002140Y-62740000D03*
%TD*%
D11*
%TO.C,TP19*%
X28040000Y-55240000D03*
%TD*%
%TO.C,TP16*%
X28540000Y-62740000D03*
%TD*%
%TO.C,TP26*%
X29040000Y-77740000D03*
%TD*%
D26*
%TO.C,C12*%
X72727140Y-80465000D03*
X72727140Y-82015000D03*
%TD*%
D12*
%TO.C,R24*%
X110715000Y-87740000D03*
X112365000Y-87740000D03*
%TD*%
D18*
%TO.C,R15*%
X121040000Y-92165000D03*
X121040000Y-93815000D03*
%TD*%
D11*
%TO.C,TP39*%
X50040000Y-89740000D03*
%TD*%
D20*
%TO.C,FB1*%
X63777140Y-55240000D03*
X62227140Y-55240000D03*
%TD*%
D11*
%TO.C,TP21*%
X32040000Y-54740000D03*
%TD*%
%TO.C,TP23*%
X26227140Y-73240000D03*
%TD*%
%TO.C,TP35*%
X74727140Y-78740000D03*
%TD*%
D17*
%TO.C,C5*%
X46540000Y-46015000D03*
X46540000Y-44465000D03*
%TD*%
D12*
%TO.C,R34*%
X96715000Y-31740000D03*
X98365000Y-31740000D03*
%TD*%
D11*
%TO.C,TP32*%
X50040000Y-83240000D03*
%TD*%
D17*
%TO.C,C21*%
X76227140Y-47015000D03*
X76227140Y-45465000D03*
%TD*%
D26*
%TO.C,C18*%
X87227140Y-51465000D03*
X87227140Y-53015000D03*
%TD*%
D17*
%TO.C,C6*%
X70227140Y-47015000D03*
X70227140Y-45465000D03*
%TD*%
%TO.C,C19*%
X71717140Y-47015000D03*
X71717140Y-45465000D03*
%TD*%
D18*
%TO.C,R35*%
X54657140Y-38915000D03*
X54657140Y-40565000D03*
%TD*%
D26*
%TO.C,C27*%
X81227140Y-80465000D03*
X81227140Y-82015000D03*
%TD*%
D19*
%TO.C,R26*%
X65290000Y-49315000D03*
X65290000Y-47665000D03*
%TD*%
D28*
%TO.C,J6*%
X70227140Y-90240000D03*
X72767140Y-90240000D03*
X75307140Y-90240000D03*
X77847140Y-90240000D03*
%TD*%
D11*
%TO.C,TP9*%
X32540000Y-96240000D03*
%TD*%
D20*
%TO.C,C24*%
X61502140Y-59740000D03*
X59952140Y-59740000D03*
%TD*%
D29*
%TO.C,D2*%
X91540000Y-87852500D03*
X91540000Y-86277500D03*
%TD*%
D18*
%TO.C,R21*%
X91540000Y-82740000D03*
X91540000Y-84390000D03*
%TD*%
D12*
%TO.C,R25*%
X110715000Y-81740000D03*
X112365000Y-81740000D03*
%TD*%
D19*
%TO.C,R5*%
X48540000Y-46065000D03*
X48540000Y-44415000D03*
%TD*%
D30*
%TO.C,U3*%
X121340000Y-34240000D03*
X120690000Y-34240000D03*
X120040000Y-34240000D03*
X119390000Y-34240000D03*
%TD*%
D26*
%TO.C,C1*%
X49040000Y-35465000D03*
X49040000Y-37015000D03*
%TD*%
D11*
%TO.C,TP3*%
X65040000Y-33240000D03*
%TD*%
D31*
%TO.C,J4*%
X36360000Y-22090000D03*
X27720000Y-22090000D03*
D32*
X36360000Y-26090000D03*
X27720000Y-26090000D03*
%TD*%
D18*
%TO.C,R2*%
X51040000Y-35415000D03*
X51040000Y-37065000D03*
%TD*%
D27*
%TO.C,C15*%
X98452140Y-65740000D03*
X100002140Y-65740000D03*
%TD*%
D12*
%TO.C,R30*%
X55715000Y-49240000D03*
X57365000Y-49240000D03*
%TD*%
D25*
%TO.C,S2*%
X62020179Y-103707090D03*
X62020179Y-109707090D03*
%TD*%
D11*
%TO.C,TP34*%
X50040000Y-87240000D03*
%TD*%
D17*
%TO.C,C29*%
X83227140Y-82015000D03*
X83227140Y-80465000D03*
%TD*%
D18*
%TO.C,R11*%
X59040000Y-98915000D03*
X59040000Y-100565000D03*
%TD*%
D27*
%TO.C,C7*%
X98452140Y-64240000D03*
X100002140Y-64240000D03*
%TD*%
D18*
%TO.C,R31*%
X53040000Y-35915000D03*
X53040000Y-37565000D03*
%TD*%
%TO.C,R36*%
X58040000Y-35415000D03*
X58040000Y-37065000D03*
%TD*%
D11*
%TO.C,TP24*%
X34540000Y-52740000D03*
%TD*%
D18*
%TO.C,R9*%
X49540000Y-98915000D03*
X49540000Y-100565000D03*
%TD*%
D33*
%TO.C,J2*%
X126040000Y-54580000D03*
X126040000Y-52040000D03*
X126040000Y-49500000D03*
X126040000Y-46960000D03*
%TD*%
D34*
%TO.C,C8*%
X108227140Y-81765000D03*
X108227140Y-84715000D03*
%TD*%
D27*
%TO.C,C14*%
X95452140Y-70240000D03*
X97002140Y-70240000D03*
%TD*%
D35*
%TO.C,J7*%
X40525000Y-84700000D03*
X44555000Y-84700000D03*
X40525000Y-85970000D03*
X44555000Y-85970000D03*
X40525000Y-87240000D03*
X44555000Y-87240000D03*
X40525000Y-88510000D03*
X44555000Y-88510000D03*
X40525000Y-89780000D03*
X44555000Y-89780000D03*
%TD*%
D36*
%TO.C,R33*%
X98365000Y-33740000D03*
X96715000Y-33740000D03*
%TD*%
D18*
%TO.C,R16*%
X80540000Y-98915000D03*
X80540000Y-100565000D03*
%TD*%
D29*
%TO.C,D1*%
X94540000Y-87852500D03*
X94540000Y-86277500D03*
%TD*%
D37*
%TO.C,MT1*%
X28000000Y-106740000D03*
D38*
X32500000Y-106740000D03*
D39*
X27500000Y-114540000D03*
X32500000Y-114540000D03*
X30000000Y-114540000D03*
X27500000Y-98940000D03*
X32500000Y-98940000D03*
D40*
X23000000Y-106740000D03*
X37000000Y-106740000D03*
%TD*%
D11*
%TO.C,TP4*%
X92040000Y-63740000D03*
%TD*%
%TO.C,TP29*%
X122040000Y-63240000D03*
%TD*%
D25*
%TO.C,S4*%
X82006717Y-103707090D03*
X82006717Y-109707090D03*
%TD*%
D20*
%TO.C,C26*%
X57502140Y-68240000D03*
X55952140Y-68240000D03*
%TD*%
D19*
%TO.C,R38*%
X52540000Y-42390000D03*
X52540000Y-40740000D03*
%TD*%
D11*
%TO.C,TP22*%
X36540000Y-56740000D03*
%TD*%
D41*
%TO.C,J3*%
X66307140Y-90240000D03*
X63767140Y-90240000D03*
X61227140Y-90240000D03*
X58687140Y-90240000D03*
%TD*%
D25*
%TO.C,S3*%
X72040000Y-103740000D03*
X72040000Y-109740000D03*
%TD*%
D11*
%TO.C,TP7*%
X19540000Y-114240000D03*
%TD*%
D17*
%TO.C,C3*%
X91040000Y-33515000D03*
X91040000Y-31965000D03*
%TD*%
D20*
%TO.C,C10*%
X57502140Y-71240000D03*
X55952140Y-71240000D03*
%TD*%
D18*
%TO.C,R17*%
X90040000Y-98915000D03*
X90040000Y-100565000D03*
%TD*%
D11*
%TO.C,TP13*%
X24540000Y-86990000D03*
%TD*%
D42*
%TO.C,L1*%
X50140000Y-49240000D03*
X52940000Y-49240000D03*
%TD*%
D11*
%TO.C,TP27*%
X22040000Y-30740000D03*
%TD*%
D17*
%TO.C,C31*%
X68727140Y-47015000D03*
X68727140Y-45465000D03*
%TD*%
D18*
%TO.C,R29*%
X42359400Y-35915000D03*
X42359400Y-37565000D03*
%TD*%
D11*
%TO.C,TP5*%
X54540000Y-43740000D03*
%TD*%
D19*
%TO.C,R32*%
X115040000Y-34565000D03*
X115040000Y-32915000D03*
%TD*%
D26*
%TO.C,C9*%
X59540000Y-49215000D03*
X59540000Y-50765000D03*
%TD*%
%TO.C,C4*%
X43040000Y-46965000D03*
X43040000Y-48515000D03*
%TD*%
D18*
%TO.C,R4*%
X93540000Y-35915000D03*
X93540000Y-37565000D03*
%TD*%
D27*
%TO.C,C16*%
X55952140Y-72740000D03*
X57502140Y-72740000D03*
%TD*%
D12*
%TO.C,R40*%
X98402140Y-55740000D03*
X100052140Y-55740000D03*
%TD*%
D26*
%TO.C,C13*%
X78727140Y-80465000D03*
X78727140Y-82015000D03*
%TD*%
D18*
%TO.C,R27*%
X39359400Y-35915000D03*
X39359400Y-37565000D03*
%TD*%
%TO.C,R14*%
X128540000Y-112915000D03*
X128540000Y-114565000D03*
%TD*%
%TO.C,R13*%
X109040000Y-112915000D03*
X109040000Y-114565000D03*
%TD*%
D17*
%TO.C,C22*%
X79227140Y-47015000D03*
X79227140Y-45465000D03*
%TD*%
D18*
%TO.C,R1*%
X60040000Y-33915000D03*
X60040000Y-35565000D03*
%TD*%
D43*
%TO.C,Y2*%
X73627140Y-30090000D03*
X75827140Y-30090000D03*
X75827140Y-28390000D03*
X73627140Y-28390000D03*
%TD*%
D17*
%TO.C,C23*%
X80727140Y-47015000D03*
X80727140Y-45465000D03*
%TD*%
%TO.C,C20*%
X73227140Y-47015000D03*
X73227140Y-45465000D03*
%TD*%
D11*
%TO.C,TP25*%
X35040000Y-75740000D03*
%TD*%
D27*
%TO.C,C17*%
X98677140Y-61240000D03*
X100227140Y-61240000D03*
%TD*%
D11*
%TO.C,TP31*%
X123040000Y-67740000D03*
%TD*%
D37*
%TO.C,MT2*%
X116540000Y-106740000D03*
D38*
X121040000Y-106740000D03*
D39*
X116040000Y-114540000D03*
X121040000Y-114540000D03*
X118540000Y-114540000D03*
X116040000Y-98940000D03*
X121040000Y-98940000D03*
D40*
X111540000Y-106740000D03*
X125540000Y-106740000D03*
%TD*%
D13*
%TO.C,CR2*%
X42540000Y-39169900D03*
X42540000Y-43310100D03*
%TD*%
D25*
%TO.C,S1*%
X52026910Y-103707090D03*
X52026910Y-109707090D03*
%TD*%
D11*
%TO.C,TP28*%
X126040000Y-63240000D03*
%TD*%
D44*
%TO.C,J5*%
X127527140Y-84490000D03*
X120527140Y-84490000D03*
D45*
X128627140Y-80790000D03*
D46*
X119227140Y-80790000D03*
D45*
X126627140Y-88190000D03*
D47*
X115227140Y-85240000D03*
%TD*%
D36*
%TO.C,R39*%
X100052140Y-57740000D03*
X98402140Y-57740000D03*
%TD*%
D11*
%TO.C,TP14*%
X52040000Y-100490000D03*
%TD*%
D18*
%TO.C,R23*%
X38540000Y-24915000D03*
X38540000Y-26565000D03*
%TD*%
D48*
%TO.C,U5*%
X85290000Y-55572000D03*
X84790001Y-55572000D03*
X84290000Y-55572000D03*
X83790001Y-55572000D03*
X83289999Y-55572000D03*
X82790000Y-55572000D03*
X82290001Y-55572000D03*
X81790000Y-55572000D03*
X81290001Y-55572000D03*
X80789999Y-55572000D03*
X80290000Y-55572000D03*
X79790001Y-55572000D03*
X79290000Y-55572000D03*
X78790001Y-55572000D03*
X78289999Y-55572000D03*
X77790000Y-55572000D03*
X77290001Y-55572000D03*
X76790000Y-55572000D03*
X76290000Y-55572000D03*
X75790002Y-55572000D03*
X75290000Y-55572000D03*
X74790001Y-55572000D03*
X74289999Y-55572000D03*
X73790000Y-55572000D03*
X73290001Y-55572000D03*
X72790000Y-55572000D03*
X72290001Y-55572000D03*
X71789999Y-55572000D03*
X71290000Y-55572000D03*
X70790001Y-55572000D03*
X70290000Y-55572000D03*
X69790001Y-55572000D03*
X69289999Y-55572000D03*
X68790000Y-55572000D03*
X68290001Y-55572000D03*
X67790000Y-55572000D03*
D49*
X65872000Y-57490000D03*
X65872000Y-57989999D03*
X65872000Y-58490000D03*
X65872000Y-58989999D03*
X65872000Y-59490001D03*
X65872000Y-59990000D03*
X65872000Y-60489999D03*
X65872000Y-60990000D03*
X65872000Y-61489999D03*
X65872000Y-61990001D03*
X65872000Y-62490000D03*
X65872000Y-62989999D03*
X65872000Y-63490000D03*
X65872000Y-63989999D03*
X65872000Y-64490001D03*
X65872000Y-64990000D03*
X65872000Y-65489999D03*
X65872000Y-65990000D03*
X65872000Y-66490000D03*
X65872000Y-66990001D03*
X65872000Y-67490000D03*
X65872000Y-67989999D03*
X65872000Y-68490001D03*
X65872000Y-68990000D03*
X65872000Y-69490001D03*
X65872000Y-69990000D03*
X65872000Y-70489999D03*
X65872000Y-70990001D03*
X65872000Y-71490000D03*
X65872000Y-71990001D03*
X65872000Y-72490000D03*
X65872000Y-72989999D03*
X65872000Y-73490001D03*
X65872000Y-73990000D03*
X65872000Y-74490001D03*
X65872000Y-74990000D03*
D48*
X67790000Y-76908000D03*
X68289999Y-76908000D03*
X68790000Y-76908000D03*
X69289999Y-76908000D03*
X69790001Y-76908000D03*
X70290000Y-76908000D03*
X70789999Y-76908000D03*
X71290000Y-76908000D03*
X71789999Y-76908000D03*
X72290001Y-76908000D03*
X72790000Y-76908000D03*
X73289999Y-76908000D03*
X73790000Y-76908000D03*
X74289999Y-76908000D03*
X74790001Y-76908000D03*
X75290000Y-76908000D03*
X75789999Y-76908000D03*
X76290000Y-76908000D03*
X76790000Y-76908000D03*
X77290001Y-76908000D03*
X77790000Y-76908000D03*
X78289999Y-76908000D03*
X78790001Y-76908000D03*
X79290000Y-76908000D03*
X79790001Y-76908000D03*
X80290000Y-76908000D03*
X80789999Y-76908000D03*
X81290001Y-76908000D03*
X81790000Y-76908000D03*
X82290001Y-76908000D03*
X82790000Y-76908000D03*
X83289999Y-76908000D03*
X83790001Y-76908000D03*
X84290000Y-76908000D03*
X84790001Y-76908000D03*
X85290000Y-76908000D03*
D49*
X87208000Y-74990000D03*
X87208000Y-74490001D03*
X87208000Y-73990000D03*
X87208000Y-73490001D03*
X87208000Y-72989999D03*
X87208000Y-72490000D03*
X87208000Y-71990001D03*
X87208000Y-71490000D03*
X87208000Y-70990001D03*
X87208000Y-70489999D03*
X87208000Y-69990000D03*
X87208000Y-69490001D03*
X87208000Y-68990000D03*
X87208000Y-68490001D03*
X87208000Y-67989999D03*
X87208000Y-67490000D03*
X87208000Y-66990001D03*
X87208000Y-66490000D03*
X87208000Y-65990000D03*
X87208000Y-65489999D03*
X87208000Y-64990000D03*
X87208000Y-64490001D03*
X87208000Y-63989999D03*
X87208000Y-63490000D03*
X87208000Y-62989999D03*
X87208000Y-62490000D03*
X87208000Y-61990001D03*
X87208000Y-61489999D03*
X87208000Y-60990000D03*
X87208000Y-60489999D03*
X87208000Y-59990000D03*
X87208000Y-59490001D03*
X87208000Y-58989999D03*
X87208000Y-58490000D03*
X87208000Y-57989999D03*
X87208000Y-57490000D03*
%TD*%
D18*
%TO.C,R8*%
X40040000Y-110415000D03*
X40040000Y-112065000D03*
%TD*%
D50*
%TO.C,U2*%
X119390000Y-41740000D03*
X120040000Y-41740000D03*
X120690000Y-41740000D03*
X121340000Y-41740000D03*
%TD*%
D11*
%TO.C,TP40*%
X76727140Y-79240000D03*
%TD*%
D51*
%TO.C,S6*%
X19040000Y-87740000D03*
X19040000Y-84740000D03*
D52*
X21090000Y-83990000D03*
X21090000Y-86990000D03*
X21090000Y-88490000D03*
D53*
X17890000Y-89990000D03*
X17890000Y-82490000D03*
X20190000Y-82490000D03*
X20190000Y-89990000D03*
%TD*%
D11*
%TO.C,TP12*%
X121040000Y-95740000D03*
%TD*%
D20*
%TO.C,C11*%
X57502140Y-69740000D03*
X55952140Y-69740000D03*
%TD*%
D54*
%TO.C,J1*%
X22000000Y-34760000D03*
D55*
X22000000Y-37300000D03*
X22000000Y-39840000D03*
X22000000Y-42380000D03*
X22000000Y-44920000D03*
X22000000Y-47460000D03*
X22000000Y-50000000D03*
X22000000Y-52540000D03*
X22000000Y-55080000D03*
X22000000Y-57620000D03*
X22000000Y-60160000D03*
X22000000Y-62700000D03*
X22000000Y-65240000D03*
X22000000Y-67780000D03*
%TD*%
D56*
%TO.C,BT1*%
X101140000Y-51740000D03*
X45940000Y-35740000D03*
D57*
X37720000Y-51740000D03*
%TD*%
M02*
