M48
; DRILL file {KiCad 9.0.5} date 2025-11-20T02:47:14-0800
; FORMAT={-:-/ absolute / metric / decimal}
; #@! TF.CreationDate,2025-11-20T02:47:14-08:00
; #@! TF.GenerationSoftware,Kicad,Pcbnew,9.0.5
; #@! TF.FileFunction,Plated,1,2,PTH
FMAT,2
METRIC
; #@! TA.AperFunction,Plated,PTH,ComponentDrill
T1C0.200
; #@! TA.AperFunction,Plated,PTH,ComponentDrill
T2C0.203
; #@! TA.AperFunction,Plated,PTH,ViaDrill
T3C0.300
; #@! TA.AperFunction,Plated,PTH,ComponentDrill
T4C0.600
; #@! TA.AperFunction,Plated,PTH,ComponentDrill
T5C0.750
%
G90
G05
T1
X55.055Y-33.44
X55.055Y-34.54
T2
X46.99Y-48.09
X46.99Y-48.89
T3
X18.54Y-71.24
X19.727Y-28.24
X20.227Y-76.24
X20.227Y-93.24
X20.227Y-97.74
X20.227Y-102.74
X23.29Y-88.49
X24.04Y-80.94
X25.04Y-95.24
X25.54Y-29.24
X26.54Y-95.24
X27.44Y-88.14
X28.04Y-29.24
X28.04Y-95.24
X29.44Y-37.54
X30.04Y-21.74
X30.04Y-112.74
X30.04Y-116.49
X30.64Y-36.14
X30.84Y-92.74
X31.24Y-37.74
X31.54Y-62.74
X32.04Y-34.94
X32.04Y-36.34
X33.54Y-21.74
X34.04Y-85.74
X34.04Y-87.24
X34.04Y-89.74
X35.04Y-60.24
X35.54Y-29.24
X36.727Y-61.24
X38.04Y-29.24
X39.04Y-59.24
X39.04Y-63.24
X39.54Y-31.74
X39.54Y-34.74
X40.04Y-64.341
X42.04Y-59.24
X43.04Y-49.74
X43.54Y-23.24
X44.04Y-63.74
X44.54Y-60.24
X44.54Y-61.84
X46.916Y-63.741
X47.24Y-98.94
X47.54Y-63.24
X48.04Y-23.24
X48.227Y-54.74
X48.54Y-62.74
X48.64Y-40.14
X49.04Y-38.24
X51.04Y-38.24
X51.54Y-23.24
X51.54Y-63.64
X52.04Y-112.74
X52.227Y-66.74
X52.227Y-68.24
X52.54Y-44.24
X53.04Y-38.74
X53.54Y-74.74
X53.727Y-77.24
X54.227Y-70.74
X55.04Y-23.24
X55.727Y-89.74
X55.74Y-91.515
X56.54Y-41.74
X56.74Y-98.965
X57.227Y-57.74
X57.227Y-58.74
X57.227Y-88.24
X58.04Y-23.24
X58.227Y-59.24
X58.727Y-66.24
X59.54Y-47.24
X59.54Y-52.49
X59.727Y-55.74
X60.04Y-36.74
X60.727Y-87.24
X61.227Y-53.74
X61.54Y-23.24
X62.04Y-112.74
X62.727Y-51.24
X62.727Y-59.74
X62.727Y-71.24
X62.727Y-73.74
X62.727Y-86.74
X63.709Y-86.222
X63.727Y-47.74
X64.227Y-82.24
X64.727Y-55.74
X65.227Y-50.74
X65.227Y-54.24
X65.29Y-37.49
X65.29Y-40.49
X66.54Y-23.24
X66.727Y-54.74
X67.14Y-98.965
X67.227Y-41.74
X67.227Y-52.24
X67.727Y-73.74
X67.827Y-47.913
X68.227Y-66.74
X68.727Y-41.74
X68.727Y-57.74
X68.727Y-59.24
X69.727Y-57.24
X70.227Y-41.74
X70.227Y-58.24
X70.79Y-81.49
X71.227Y-86.74
X71.54Y-23.24
X71.727Y-41.74
X72.04Y-57.74
X72.04Y-112.74
X72.227Y-35.74
X72.227Y-53.74
X72.227Y-74.74
X73.227Y-41.74
X73.727Y-31.74
X73.727Y-53.74
X73.727Y-80.465
X73.727Y-86.24
X74.727Y-41.74
X74.727Y-74.74
X75.227Y-82.24
X75.727Y-27.24
X75.727Y-67.24
X76.227Y-41.74
X76.227Y-58.74
X76.54Y-23.24
X76.727Y-86.24
X77.227Y-82.24
X77.727Y-41.74
X77.727Y-58.74
X77.727Y-65.24
X78.14Y-98.965
X78.227Y-86.74
X78.727Y-75.24
X79.227Y-58.74
X79.29Y-48.24
X79.727Y-74.24
X80.227Y-58.74
X80.5Y-67.24
X80.727Y-78.24
X81.227Y-75.24
X81.227Y-79.24
X81.54Y-23.24
X82.04Y-112.74
X82.727Y-57.24
X82.727Y-65.74
X83.227Y-74.24
X83.227Y-83.24
X83.425Y-79.24
X83.727Y-58.24
X84.677Y-73.563
X84.727Y-58.24
X84.727Y-64.74
X85.182Y-93.565
X85.727Y-70.74
X86.54Y-23.24
X87.059Y-40.581
X87.227Y-54.74
X87.74Y-98.965
X88.977Y-57.49
X89.215Y-58.49
X89.29Y-64.49
X89.54Y-81.74
X90.04Y-63.24
X90.04Y-87.74
X91.04Y-63.24
X91.04Y-66.49
X91.54Y-23.24
X91.54Y-81.24
X91.54Y-89.24
X92.04Y-112.74
X92.727Y-64.74
X93.04Y-87.74
X93.227Y-58.74
X93.54Y-38.74
X93.727Y-43.24
X93.727Y-48.24
X94.227Y-57.74
X94.227Y-70.24
X94.54Y-89.24
X96.04Y-87.74
X96.54Y-23.24
X97.5Y-82.74
X98.227Y-66.915
X99.0Y-69.74
X99.0Y-81.24
X99.8Y-81.24
X100.0Y-69.24
X101.0Y-68.74
X101.0Y-81.24
X101.0Y-82.74
X101.54Y-23.24
X102.0Y-68.24
X102.0Y-82.74
X102.54Y-32.49
X103.0Y-67.74
X103.0Y-71.915
X103.0Y-81.24
X104.0Y-73.24
X104.0Y-90.24
X104.227Y-60.74
X104.5Y-71.315
X104.54Y-42.74
X104.54Y-46.07
X104.54Y-49.24
X105.0Y-72.74
X105.0Y-88.24
X106.0Y-71.74
X106.0Y-86.74
X106.54Y-23.24
X107.04Y-42.74
X107.04Y-46.24
X107.04Y-49.24
X107.5Y-88.24
X108.227Y-38.74
X108.5Y-77.24
X108.5Y-83.24
X109.0Y-110.24
X110.227Y-54.24
X111.54Y-23.24
X113.54Y-96.24
X114.04Y-37.99
X115.54Y-96.24
X116.54Y-23.24
X117.227Y-59.74
X117.54Y-96.24
X118.24Y-92.74
X118.54Y-43.74
X118.54Y-46.24
X118.54Y-112.74
X118.54Y-116.49
X120.54Y-43.74
X120.54Y-46.24
X121.54Y-23.24
X122.54Y-41.74
X126.54Y-25.74
X126.54Y-28.74
X126.54Y-31.74
X128.227Y-92.74
X128.54Y-78.49
X128.54Y-82.74
X128.727Y-60.24
X128.727Y-66.24
X128.727Y-72.74
X128.727Y-99.24
T5
X22.0Y-34.76
X22.0Y-37.3
X22.0Y-39.84
X22.0Y-42.38
X22.0Y-44.92
X22.0Y-47.46
X22.0Y-50.0
X22.0Y-52.54
X22.0Y-55.08
X22.0Y-57.62
X22.0Y-60.16
X22.0Y-62.7
X22.0Y-65.24
X22.0Y-67.78
T4
G00X27.72Y-22.69
M15
G01X27.72Y-21.49
M16
G05
G00X27.72Y-26.49
M15
G01X27.72Y-25.69
M16
G05
G00X36.36Y-22.69
M15
G01X36.36Y-21.49
M16
G05
G00X36.36Y-26.49
M15
G01X36.36Y-25.69
M16
G05
M30
